<svg xmlns="http://www.w3.org/2000/svg" width="1440" height="155" viewBox="0 0 1440 155"><title>Group</title><path fill="#F6F6F6" d="M480.353 154.784c-97.72 0-177.62-27.97-254.89-55.018C151.58 73.903 81.79 49.473 0 49.473v-7c82.98 0 153.313 24.62 227.776 50.686 76.718 26.854 156.047 54.624 252.577 54.624 91.38 0 157.032-34.394 226.54-70.807C779.13 39.133 853.826 0 961.366 0c105.138 0 174.625 32.344 241.825 63.622 66.108 30.77 134.467 62.59 236.808 62.59v7c-103.89 0-172.963-32.15-239.762-63.244C1133.728 39.01 1064.956 7 961.368 7 855.55 7 781.627 45.726 710.14 83.178c-70.29 36.824-136.684 71.606-229.787 71.606z"/><path fill="#F6F6F6" d="M480.353 128.284c-97.292 0-176.99-7.63-254.066-15.01C152.197 106.18 82.217 99.48 0 99.48v-7c82.552 0 152.694 6.716 226.954 13.825 76.912 7.364 156.442 14.98 253.4 14.98 91.737 0 157.525-19.308 227.176-39.747C779.63 60.378 854.186 38.5 961.367 38.5c109.516 0 188.124 14.745 264.145 29.005C1293.98 80.348 1358.65 92.48 1440 92.48v7c-82.003 0-146.982-12.19-215.778-25.094-75.706-14.202-153.99-28.886-262.855-28.886-106.176 0-180.24 21.735-251.866 42.755-70.146 20.585-136.403 40.03-229.147 40.03z"/><path fill="#153E81" d="M959.646 138.284c-92.915 0-159.24-26.518-229.462-54.593C658.63 55.084 584.638 25.5 478.634 25.5c-108.656 0-186.842 24.487-262.455 48.168C147.284 95.245 82.21 115.625 0 115.625v-7c81.142 0 145.718-20.225 214.087-41.637C290.202 43.15 368.907 18.5 478.633 18.5c107.353 0 181.98 29.837 254.15 58.69 69.577 27.818 135.296 54.094 226.863 54.094 96.754 0 177.13-17.234 254.86-33.9 75.242-16.135 146.312-31.374 229.067-31.374v7c-82.014 0-152.73 15.163-227.6 31.217-78.085 16.744-158.83 34.057-256.327 34.057z"/></svg>